<svg id="svg" version="1.1" viewBox="0 0 300 300" width="300" height="300" xmlns="http://www.w3.org/2000/svg"><svg xmlns="http://www.w3.org/2000/svg"><defs><clipPath id="clip-1"><rect x="0" y="0" transform="scale(0.14648,0.14648)" width="2048" height="2048" fill="none"/></clipPath></defs><g clip-path="url(#clip-1)" fill="none" fill-rule="nonzero" stroke="none" stroke-width="1" stroke-linecap="butt" stroke-linejoin="miter" stroke-miterlimit="10" stroke-dasharray="" stroke-dashoffset="0" font-family="none" font-weight="none" font-size="none" text-anchor="none" style="mix-blend-mode: normal"><path d="M122.83359,59.56362c1.76909,-3.2918 5.10264,-8.06763 7.19019,-11.34668l15.03457,-23.64287c0.63823,-1.0103 3.90747,-6.88359 4.71167,-7.07314c0.5625,0.39712 13.74756,21.42993 15.23584,23.76489l55.8501,87.73433c3.70459,5.84897 9.71191,15.26704 13.4751,21.46714c0.06445,0.10693 0.03369,0.30029 0.01904,0.45557c-0.479,0.57861 -10.71094,6.1084 -12.18604,6.93018c-19.57471,10.92188 -39.21533,21.72949 -58.91748,32.42285c-2.55908,1.39307 -5.37891,3.12891 -7.93506,4.41064c9.02051,-14.42578 23.37451,-23.10498 37.81641,-31.11768l16.99951,-9.30615c2.79639,-1.51904 6.54346,-3.37354 9.17578,-4.98047c-3.30908,-1.91162 -8.05811,-3.71382 -11.57812,-5.44775c-1.42676,-0.7021 -3.3208,-1.36685 -4.67285,-2.1873c-0.04102,-1.49092 -0.25342,-8.19214 -0.05566,-9.29546c0.83936,-0.43872 3.88623,1.37124 4.85303,1.78359c2.52539,1.07739 5.23389,2.77734 7.84277,3.57393l0.21387,0.06724c-4.75928,-7.69058 -9.59619,-15.33413 -14.50635,-22.92979l-22.99512,-36.07925l-16.23193,-25.39995c-2.30713,-3.5751 -5.37451,-8.69854 -7.78418,-11.96616c-0.15234,2.72681 -0.05566,5.89395 -0.07471,8.65854v22.20791l-0.0498,23.19067c0,3.65171 -0.15381,8.90991 0.06445,12.39609c0.90967,0.9041 4.42969,2.42578 5.83887,3.0958l8.50342,4.04927c1.73438,0.82207 4.18213,1.91675 5.80371,2.8897c-0.63428,0.68027 -7.22461,4.85171 -8.54004,5.77852c-3.72949,-1.66128 -7.41211,-3.6356 -11.11377,-5.36704c-1.34326,-0.62842 -3.63574,-1.85874 -4.93506,-2.29424c-2.33057,0.89033 -6.29839,2.94624 -8.61841,4.08779c-2.71362,1.33506 -6.55679,3.07573 -9.11411,4.53691c10.05835,0.11396 20.33262,-0.16479 30.41367,-0.09683c0.33984,0.0022 0.58594,0.06123 0.84082,0.28286c-0.00732,0.35405 -0.10254,0.63296 -0.40283,0.86543c-2.76562,2.14146 -5.64404,5.63774 -8.29102,7.66567c-0.51562,0.39565 -9.00718,0.22954 -10.15811,0.23438l-22.18608,0.01377c-2.4252,-0.00894 -6.33442,-0.14927 -8.66206,0.14341c-0.64497,0.08115 -5.0729,2.47017 -5.78203,2.87534c3.90322,2.51191 8.46211,4.18872 12.58359,6.34482c5.01226,2.62207 24.41895,13.68296 25.5293,19.2479c0.48838,2.44629 0.22427,7.96436 0.23789,10.70801c0.03735,7.54541 0.12861,15.10547 0.06738,22.64795c-3.35698,-1.55713 -8.42329,-4.60107 -11.83682,-6.4585l-59.87856,-32.84766c-0.84053,-0.46729 -8.57051,-4.62451 -8.74277,-4.82666c-0.57144,-0.31934 -0.49409,-0.17139 -0.78765,-0.66357c0.26294,-0.9873 5.73032,-9.48413 6.60776,-10.60005c0.11147,-0.39141 2.39136,-3.94248 2.75581,-4.53237c1.38633,-2.13032 2.75728,-4.27046 4.11284,-6.42041c0.28608,-0.60586 2.48848,-3.98716 2.93848,-4.56943c4.78433,-8.04653 10.76719,-17.13193 15.87129,-25.03975c0.99097,-1.72559 4.46089,-7.30078 5.60244,-8.81602c1.37798,-2.39121 3.4916,-5.56201 5.01899,-7.88071c0.78589,-1.56284 3.05171,-4.89053 4.09717,-6.45469c1.95879,-3.39844 4.74141,-7.48447 6.90718,-10.80586c0.28901,-0.63721 1.46279,-2.37817 1.87368,-2.98945c0.61567,-1.0623 1.28086,-2.06763 1.95,-3.09521zM145.23618,108.03472l-0.023,-2.75288c-0.10181,-3.79307 -0.0167,-8.01753 -0.01802,-11.83594l-0.02007,-22.16353l0.01816,-15.59136c-0.01831,-4.48418 -0.12539,-9.12759 0.10825,-13.5873l-0.17344,-0.29531c-0.56938,0.13667 -1.18975,1.30591 -1.49766,1.80835c-14.35283,22.95527 -28.87837,45.80215 -43.57529,68.53872l-10.40859,16.38032c-1.44082,2.25059 -4.6938,6.99565 -5.73032,9.25635c2.80635,-1.0749 6.61509,-3.16289 9.41953,-4.53647l17.50884,-8.51074c7.18931,-3.41499 14.3606,-6.86777 21.51357,-10.35835c3.82983,-1.83794 9.26191,-4.27778 12.87803,-6.35186zM80.54517,149.00244c1.529,1.36963 6.50435,3.9082 8.58662,5.02295l8.9666,4.84277c1.51567,0.80859 3.66855,2.02441 5.20444,2.64404c0.33384,-6.67383 -0.19731,-13.69629 0.07559,-20.39956c0.01201,-0.29502 0.00044,-1.0229 -0.25767,-1.17744c-1.82109,0.33633 -4.42485,0.78516 -6.04966,1.57178c-5.4,2.61401 -11.15962,4.86357 -16.52593,7.49546z" fill="#07b07e"/><path d="M65.8856,151.43115c-0.57144,-0.31934 -0.49409,-0.17139 -0.78765,-0.66357c0.26294,-0.9873 5.73032,-9.48413 6.60776,-10.60005c0.24302,0.96021 -3.7311,6.41646 -4.32729,7.66597c-0.17593,0.36768 -1.48271,2.56201 -1.70669,2.84326l-0.27056,0.00586c0.19233,0.41016 0.1894,0.4043 0.48442,0.74854z" fill="#22b988"/><path d="M145.30151,42.10371c0.43066,2.28809 0.15688,3.33047 0.16392,5.58076l0.07266,6.72378l0.13433,37.07241c0.00073,2.35254 0.22734,12.16289 -0.20054,13.91543l-0.12598,0.09111l-0.13271,-0.20537c-0.10181,-3.79307 -0.0167,-8.01753 -0.01802,-11.83594l-0.02007,-22.16353l0.01816,-15.59136c-0.01831,-4.48418 -0.12539,-9.12759 0.10825,-13.5873z" fill="#22b988"/><path d="M63.80259,164.45068c1.1521,0.18311 14.23916,7.56152 16.52871,8.79932l43.14902,23.35547c6.28359,3.47314 12.59268,6.90088 18.9271,10.28027c2.4334,1.31104 5.00127,2.81836 7.42852,4.04736c1.56006,-0.61084 5.35107,-2.83154 6.97998,-3.71777l14.521,-7.88965l39.48047,-21.40576c8.08154,-4.40918 17.10645,-9.51562 25.27441,-13.57324c-3.23291,5.13281 -7.69922,11.19434 -11.23242,16.20703l-20.18701,28.77686c-5.34375,7.8208 -11.27051,15.91553 -16.76074,23.66895l-21.479,30.69141c-3.78223,5.4668 -7.60107,10.90723 -11.45801,16.31982c-0.99609,1.42529 -4.06787,6.13477 -5.03027,6.99463c-1.03711,-0.99023 -2.92236,-3.90527 -3.79556,-5.17969c-1.8479,-2.70117 -3.71147,-5.39062 -5.59028,-8.06982l-23.50195,-33.479l-36.25166,-51.50244l-11.23652,-15.87305c-1.37124,-1.93506 -4.78389,-6.5127 -5.76577,-8.45068zM166.3418,248.4126c0.41309,-0.79248 1.52344,-2.31152 2.07275,-3.104c1.4165,-2.05518 2.86377,-4.08838 4.34033,-6.10107c3.96387,-5.51807 7.9834,-11.71436 12.05127,-17.04639c0.31201,-0.71338 2.43604,-3.47314 2.98975,-4.25684l8.8125,-12.43799c0.80273,-1.30957 2.21924,-3.22412 3.14063,-4.49121c2.29395,-3.57275 5.3584,-7.19385 7.56738,-10.74463c-2.80811,1.17773 -5.24707,2.56201 -7.92187,4.01074l-11.18994,6.0791c-7.46191,3.99463 -14.90479,8.02881 -22.32568,12.09961c-1.69189,0.92139 -10.50586,5.41406 -11.52393,6.47754c-0.19629,1.25684 -0.10693,3.71631 -0.104,5.07861l0.03662,9.56982l0.104,31.56445c1.81201,-2.18555 3.26367,-4.40918 4.90137,-6.71777c0.21973,-0.30908 1.57178,-2.24707 1.72559,-2.37744c1.0459,-1.71826 4.07959,-6.02637 5.32324,-7.60254zM145.1751,262.75635l0.04482,-29.33789c0.01582,-4.80469 -0.08936,-10.04736 0.06182,-14.78906c-2.48687,-1.65527 -7.86094,-4.35205 -10.62319,-5.85205l-20.6748,-11.21777c-4.74492,-2.54004 -9.45776,-5.25879 -14.20723,-7.7915c-2.08828,-1.11328 -5.02705,-2.85645 -7.13525,-3.7749c0.21094,0.76318 0.60557,1.33447 1.05176,1.9834c7.18682,10.30518 14.43589,20.56934 21.74678,30.78662c6.84946,9.9126 13.78228,19.7666 20.79771,29.56055c1.95703,2.70264 3.89004,5.42139 5.79888,8.15771c0.53262,0.76465 2.26392,3.4585 2.71582,3.854l0.2729,0.00732c0.2855,-0.39404 0.1563,-1.03711 0.15,-1.58643z" fill="#07b07e"/><path d="M168.43066,130.56094c0.55957,-0.61685 2.02148,-1.5876 2.74219,-2.10381c5.80078,-4.15913 12.11572,-7.31484 18.59326,-10.25903c1.59814,-0.72612 4.31543,-1.98604 5.95752,-2.41582c0.20361,1.85508 0.12158,4.36187 0.104,6.26147c-0.02637,2.55879 -0.03076,5.11787 -0.01172,7.67681l-0.00293,14.26875c0.00439,1.85698 0.22119,9.69478 -0.38086,10.7978c-1.20557,0.84082 -3.06299,1.46484 -4.41943,2.146c-15.17578,7.62891 -27.84814,15.95215 -37.78271,29.96484c-0.34863,-5.92676 -0.06738,-11.94873 -0.08936,-17.88867c-0.01172,-3.26514 -0.375,-20.20752 0.21533,-22.16602c0.70313,-2.32764 4.42822,-6.40825 6.09082,-8.27417c0.49512,-0.55635 1.00928,-1.19663 1.60547,-1.64136c1.58057,-1.78579 5.42285,-5.03774 7.37842,-6.3668z" fill="#07b07e"/><path d="M161.05225,136.92773c1.58057,-1.78579 5.42285,-5.03774 7.37842,-6.3668l0.04541,0.31362c-0.83643,0.85693 -6.39258,5.85249 -7.16309,6.1314z" fill="#22b988"/></g></svg></svg>