<svg id="svg" version="1.1" viewBox="0 0 300 300" width="300" height="300" xmlns="http://www.w3.org/2000/svg"><svg xmlns="http://www.w3.org/2000/svg"><defs><clipPath id="clip-1"><rect x="0" y="0" transform="scale(0.14648,0.14648)" width="2048" height="2048" fill="none"/></clipPath></defs><g clip-path="url(#clip-1)" fill="none" fill-rule="nonzero" stroke="none" stroke-width="1" stroke-linecap="butt" stroke-linejoin="miter" stroke-miterlimit="10" stroke-dasharray="" stroke-dashoffset="0" font-family="none" font-weight="none" font-size="none" text-anchor="none" style="mix-blend-mode: normal"><path d="M150.04688,14.30089c1.49121,2.03827 3.18457,4.89398 4.56592,7.09506l8.44189,13.46602l33.12158,52.40127l27.1084,42.74165l7.34326,11.60947c1.8252,2.85322 3.85254,5.81338 5.40527,8.8002c-1.68604,1.2627 -7.70947,4.49707 -9.74707,5.62646l-17.25146,9.5918l-34.59521,19.08545c-6.02783,3.39844 -12.09375,6.72656 -18.19775,9.98584c2.10791,-3.82471 5.19141,-7.2832 8.1958,-10.43994c12.72656,-13.37256 29.84326,-20.85645 45.59473,-29.9209c3.36182,-1.93506 6.72803,-3.88037 10.12061,-5.75537c-1.81494,-0.67236 -3.52002,-1.5542 -5.28223,-2.33599c-3.65771,-1.62261 -7.25391,-3.41221 -10.89551,-5.05225c-0.19922,-2.57915 -0.05566,-7.47539 -0.02051,-10.12148c2.89014,1.19868 10.53955,4.46587 13.00049,5.97788c-1.48096,-1.8498 -2.79053,-4.04355 -4.06641,-6.05786l-5.40088,-8.56289l-16.87354,-26.66528l-20.64697,-32.54941c-4.14697,-6.44268 -8.33496,-12.90176 -12.3457,-19.42983c-0.99463,-1.61733 -2.0332,-3.08892 -2.93994,-4.75371c0.29443,7.7918 0.06592,16.98633 0.06738,24.85898l-0.01025,42.73198c2.04053,0.88081 4.76221,2.34272 6.81592,3.34688c4.66406,2.25088 9.29883,4.55874 13.90576,6.92329c-0.93018,0.72319 -2.8418,1.85596 -3.90527,2.54297c-1.71387,1.11738 -3.38086,2.30537 -4.99658,3.56104c-3.88477,-1.70508 -7.96289,-3.96665 -11.84766,-5.75874c-1.5,-0.69229 -3.16553,-1.72163 -4.68896,-2.27856c-1.24219,0.50391 -3.50977,1.79546 -4.82197,2.42827c-4.20718,2.03013 -8.46357,4.3667 -12.71543,6.27334c8.17603,-0.277 16.52959,0.0835 24.72246,-0.06138c2.66748,-0.04717 5.5708,-0.04453 8.23096,0.08174c-0.81445,0.80625 -2.21484,1.90811 -3.11426,2.69883c-2.53857,2.22891 -4.93066,4.26284 -7.27441,6.69712c-3.40576,0.1478 -7.53223,0.04058 -10.97959,0.04058l-19.56855,0.01113c-3.36182,-0.00146 -7.57734,-0.14692 -10.90254,0.10137c-0.84067,0.06284 -4.42295,1.96333 -5.85015,2.47017c9.03765,4.32935 30.83687,15.104 36.54214,23.08008c0.13022,1.11768 1.69292,2.73486 1.83281,3.90674c0.11777,0.9873 0.05112,2.36426 0.05039,3.38379l-0.00937,7.04004l-0.01816,14.05664c-0.01479,2.5166 0.05039,5.58691 -0.19497,8.03613c-1.60283,-0.95361 -17.6603,-9.81006 -18.25972,-9.77197l-0.1604,0.104c-1.24277,-0.50977 -4.45386,-2.38477 -5.78071,-3.11572l-12.6356,-6.98291l-45.00278,-24.91113c1.28027,-2.63086 3.34585,-5.61138 4.95,-8.12783l7.49868,-11.86172l25.18989,-39.78486l34.29316,-54.36372l9.05537,-14.4c1.59023,-2.52056 3.24111,-5.27314 4.94766,-7.69271zM83.25894,137.10234c2.69487,-1.64429 8.13252,-4.06846 11.1085,-5.49463l20.34697,-9.79409l21.11763,-10.34341c2.58853,-1.26694 7.18213,-3.73184 9.61538,-4.68647l0.18896,-0.08599c0.19131,-1.52813 0.07002,-5.67949 0.06885,-7.40288l-0.00176,-14.91284l0.00322,-29.35825c0.00322,-2.77603 0.23672,-13.99658 -0.32798,-15.93076c-1.11343,2.04111 -2.5541,4.12339 -3.80874,6.1147c-2.3332,3.72817 -4.68589,7.44419 -7.05791,11.14775l-16.63901,26.22026l-21.65391,34.09307c-4.24072,6.69141 -8.56245,13.89668 -12.96021,20.43354zM80.071,148.62305c2.86655,1.57031 5.72329,3.1582 8.56992,4.76367c4.00034,2.2793 10.47246,5.4917 14.04917,7.89404c0.01611,-2.45947 0.15,-22.83369 -0.1125,-23.10439c-4.88101,2.33218 -9.78018,4.62598 -14.69707,6.8811c-2.07275,0.96021 -5.78921,2.81411 -7.80952,3.56558z" fill="#000000"/><path d="M145.37871,39.09302c0.5647,1.93418 0.3312,13.15474 0.32798,15.93076l-0.00322,29.35825l0.00176,14.91284c0.00117,1.72339 0.12246,5.87476 -0.06885,7.40288l-0.18896,0.08599c-0.37075,-0.78545 -0.17813,-38.03599 -0.17944,-41.90464l-0.00352,-16.17114c0.00015,-2.99648 -0.09595,-6.67646 0.11426,-9.61494z" fill-opacity="0.96471" fill="#000000"/><path d="M150.04248,211.66553c6.19336,-3.29883 12.25049,-6.70898 18.4043,-10.0752l45.68408,-24.93018c4.75781,-2.62793 9.53174,-5.22656 14.32178,-7.79443c3.20654,-1.74756 5.77295,-3.23437 9.12158,-4.84717c-1.13379,2.09033 -2.62207,4.1499 -3.98437,6.10254l-5.98828,8.56201l-21.91846,31.46631c-3.02051,4.53369 -6.35889,9.08057 -9.47021,13.57617l-25.65234,36.68408l-13.39746,19.17188c-2.26318,3.23291 -4.64941,6.79102 -7.02539,9.90527c-1.50293,-1.57324 -4.69277,-6.41455 -6.09814,-8.42139l-11.77354,-16.7959l-37.92466,-54.24023l-23.46929,-33.75c-1.65103,-2.40967 -3.37046,-4.78125 -5.03232,-7.1792c-0.93911,-1.35645 -2.49082,-3.51123 -3.1645,-4.99658c2.52363,0.96094 5.84561,3.03076 8.27769,4.33008c8.37217,4.47217 16.76455,9.07178 25.06201,13.68164zM145.20703,238.27441c1.02085,-3.47607 0.09536,-14.79199 0.14956,-18.86133c0.00645,-0.48926 -6.01597,-3.51562 -6.93838,-4.021l-23.17412,-12.71191l-13.63301,-7.41797c-1.63052,-0.87891 -7.32788,-4.18945 -8.85659,-4.36816l-0.24932,-0.00293c0.1144,0.55811 8.04976,11.7627 8.82173,12.86865l28.75913,41.13135l7.69585,10.9834c2.42563,3.39697 5.25688,7.22021 7.54995,10.68018c-0.41294,-4.07373 -0.07075,-10.5 -0.09521,-14.73779l-0.07632,-9.41748c-0.00015,-0.89941 -0.04878,-3.3252 0.04673,-4.125zM154.97754,219.65479c-0.25195,11.62207 0.0293,23.3877 -0.10254,35.01709c-0.04102,3.75439 0.19482,7.95117 -0.06299,11.67773c0.0835,-0.0293 0.16699,-0.05713 0.25049,-0.08643c3.16992,-4.48828 8.20459,-11.66748 11.1709,-15.91699l41.46094,-59.3291l-0.10254,-0.14502c-4.47363,2.83594 -11.3291,6.21094 -16.12207,8.83008c-12.19922,6.5874 -24.36328,13.23779 -36.49219,19.95264z" fill="#000000"/><path d="M92.75449,190.89404c1.52871,0.17871 7.22607,3.48926 8.85659,4.36816l13.63301,7.41797l23.17412,12.71191c0.92241,0.50537 6.94482,3.53174 6.93838,4.021c-0.0542,4.06934 0.87129,15.38525 -0.14956,18.86133c-0.14604,-6.08203 -0.0624,-12.49951 -0.08071,-18.60937c-1.22563,-0.85693 -3.07266,-1.76074 -4.40083,-2.52539c-3.12451,-1.79736 -6.33574,-3.46582 -9.50625,-5.18848l-28.57368,-15.59473c-1.69937,-0.93896 -8.85044,-4.55127 -9.89106,-5.4624z" fill-opacity="0.9451" fill="#000000"/><path d="M196.75049,114.56016l0.09229,0.07749c0.34277,0.8707 0.2168,36.13433 0.17871,39.38774c-14.92236,7.09863 -28.53809,15.6665 -39.57422,28.03271c-1.2085,1.35645 -2.57227,3.10547 -3.96973,4.21875c-0.37207,-1.02832 -0.15527,-12.85254 -0.15527,-14.98828l-0.00293,-15.04541c-0.00439,-2.03467 -0.33545,-9.7002 0.62402,-11.06821c8.33936,-11.89541 20.68066,-20.46929 33.66797,-26.654c2.92676,-1.3938 6.06592,-2.92734 9.13916,-3.96079z" fill="#000000"/><path d="M144.29062,158.78613c1.3248,1.24512 2.204,2.98535 2.204,4.8208c0.00586,9.53613 -0.00879,19.0752 0.00146,28.61279c0.00146,1.22461 -0.00586,2.52393 -0.10107,3.74414l-12.26631,-6.73828c-2.11509,-1.15723 -4.58613,-2.42139 -6.59751,-3.68408l0.1604,-0.104c0.59941,-0.03809 16.65688,8.81836 18.25972,9.77197c0.24536,-2.44922 0.18018,-5.51953 0.19497,-8.03613l0.01816,-14.05664l0.00937,-7.04004c0.00073,-1.01953 0.06738,-2.39648 -0.05039,-3.38379c-0.13989,-1.17187 -1.70259,-2.78906 -1.83281,-3.90674z" fill-opacity="0.96078" fill="#000000"/></g></svg></svg>