<svg id="svg" version="1.1" viewBox="0 0 300 300" width="300" height="300" xmlns="http://www.w3.org/2000/svg"><svg xmlns="http://www.w3.org/2000/svg"><defs><clipPath id="clip-1"><rect x="0" y="0" transform="scale(0.14648,0.14648)" width="2048" height="2048" fill="none"/></clipPath></defs><g clip-path="url(#clip-1)" fill="none" fill-rule="nonzero" stroke="none" stroke-width="1" stroke-linecap="butt" stroke-linejoin="miter" stroke-miterlimit="10" stroke-dasharray="" stroke-dashoffset="0" font-family="none" font-weight="none" font-size="none" text-anchor="none" style="mix-blend-mode: normal"><path d="M149.66895,16.78799c0.54199,0.43198 5.30273,8.18584 5.97949,9.25151l20.32324,32.13164l40.90576,64.58203l10.89111,17.34946c2.07275,3.27261 4.87793,7.42324 6.69287,10.77188c-3.99023,2.13721 -8.00537,4.44873 -11.97656,6.6416l-39.54785,21.93164l-17.34961,9.53467c-2.50781,1.35645 -8.25146,4.23633 -10.37842,5.80371c13.12793,-20.146 34.52344,-29.39648 54.67969,-40.63477c3.0249,-1.68604 6.21094,-3.52881 9.3252,-5.01709l-16.48975,-7.50381c-0.06885,-3.14751 -0.01318,-6.53027 -0.01465,-9.69536c2.41406,0.68379 10.47949,4.3604 12.96387,5.60361l-61.18652,-96.36021c0.12158,2.33467 0.04248,5.37891 0.04248,7.76323l-0.00146,14.08315l0.01465,44.88809c0.90234,0.5165 1.8999,0.93604 2.83594,1.39629c5.84326,2.87607 11.77441,5.59116 17.58838,8.52349c-2.74512,1.15664 -6.58154,3.99785 -8.99121,5.80649c-5.4082,-2.52847 -10.78418,-5.12285 -16.12939,-7.78257c-5.55293,2.99839 -11.71289,5.56465 -17.18877,8.52949c6.81782,0.20391 13.75576,-0.05947 20.58867,0.03589c3.89063,0.05435 7.86475,0.05991 11.74951,-0.00513c-0.64014,0.5373 -1.3623,1.0856 -2.02734,1.59741c-3.04541,2.34082 -5.75391,4.94458 -8.5459,7.57031l-28.26328,-0.01421l-7.15635,-0.02358c-5.98374,-0.02388 -5.33628,0.24712 -10.67021,2.85015c1.12354,0.56338 2.23491,1.15854 3.35186,1.72148c11.31826,5.70469 22.78315,11.14907 31.89155,20.21499c3.08716,3.07324 2.66968,4.57617 2.71875,8.68799c0.02329,1.94238 0.02886,3.97412 0.03062,5.91943l0.00791,22.61719c-2.18247,-1.10596 -4.93857,-2.74658 -7.14932,-3.95947l-16.98135,-9.29736l-57.00293,-31.45166c2.14966,-3.62109 4.56387,-7.32466 6.81548,-10.91265l14.1668,-22.44873l40.59448,-64.16807c5.79023,-9.01699 11.51279,-18.07734 17.1668,-27.18032c1.9084,-3.12275 3.95479,-6.14019 5.72578,-9.35186zM84.46816,137.44497c2.69077,-1.40977 5.71553,-2.77134 8.47339,-4.08721l13.88877,-6.6709l38.31372,-18.65581l-0.01201,-50.99868c0.00088,-2.1627 0.28491,-14.42871 -0.04966,-15.61978c-1.71797,3.05464 -3.59722,5.77954 -5.47324,8.73735l-9.98511,15.71191l-36.63809,57.84419c-0.97324,1.5457 -8.56348,13.37007 -8.51777,13.73892zM80.81147,149.06543c2.45786,1.38721 5.53345,3.17285 8.03042,4.42822c4.61997,2.5752 10.11445,5.37451 14.56802,8.02881l-0.00571,-15.89414c-0.00029,-1.12603 0.08481,-6.12773 -0.0397,-7.0043l-13.49121,6.27847c-2.90845,1.32876 -6.22954,2.73911 -9.06182,4.16294z" fill="#fefefe"/><path d="M63.86602,164.34082c1.70039,0.51563 7.65791,3.92432 9.54844,4.94238c6.91802,3.6709 13.8022,7.40332 20.65151,11.2002l55.77144,30.53027c1.13818,-0.69873 2.81543,-1.50439 4.02832,-2.15332l7.1792,-3.90381l25.63916,-14.02148l30.33105,-16.56006c6.25195,-3.41455 12.58447,-7.05615 18.97266,-10.19531c-0.61377,0.73828 -1.14551,1.47803 -1.6626,2.28662c-2.79346,4.37402 -5.83594,8.56201 -8.79199,12.82617l-21.25049,30.53467c-4.29492,5.83301 -8.41113,12.06592 -12.57715,18.01172l-27.3252,39.08057l-9.23584,13.17627c-1.40771,2.00098 -4.29639,5.8667 -5.20752,7.93066c-3,-4.78418 -6.7188,-9.91992 -9.98013,-14.58691l-15.07676,-21.55371l-39.31069,-56.31738c-4.6604,-6.58154 -9.28389,-13.18945 -13.87061,-19.8208c-2.24487,-3.20068 -5.94507,-8.16504 -7.83281,-11.40674zM145.15723,265.01074l-0.07646,-30.67822c-0.00718,-4.9541 0.13008,-10.57324 -0.01494,-15.47754c-4.94429,-3.03223 -11.4936,-6.45557 -16.64385,-9.22559l-17.38447,-9.49658c-4.53208,-2.47266 -9.04321,-5.05518 -13.64692,-7.38574c-0.73901,-0.37354 -4.00312,-2.15332 -4.5709,-2.35107c4.65205,6.35742 9.25107,13.22021 13.78345,19.69043l28.88789,41.354c2.54297,3.64893 6.72832,9.62109 9.39712,13.47363c0.08965,0.03223 0.17944,0.06445 0.26909,0.09668zM154.62305,218.94727c-0.17432,3.4585 -0.06592,7.82373 -0.06592,11.34521v20.17969l-0.00293,10.01514c0,0.76025 -0.05273,3.81299 0.06738,4.43115l0.09229,0.09814l34.58203,-49.60693c5.7334,-8.20752 11.80664,-16.48389 17.38916,-24.77197l-0.12158,-0.20508c-3.76611,2.20459 -7.91016,4.24805 -11.7627,6.35156l-24.8291,13.58203l-10.34473,5.72461c-1.46924,0.8291 -3.63867,1.96729 -5.00391,2.85645z" fill="#fefefe"/><path d="M195.68115,115.57559l0.15674,0.02314c0.25928,0.39214 0.20508,35.05898 0.08203,38.75186c-4.96729,2.56787 -9.70752,4.83984 -14.57812,7.66846c-7.7959,4.52051 -14.93262,10.09424 -21.20508,16.56445c-2.08008,2.13867 -5.12988,5.37012 -6.84961,7.79883c-0.07178,0.01758 -0.14502,-0.0249 -0.21533,-0.04395c-0.1626,-7.27002 0.06592,-14.86963 -0.02637,-22.16309c-0.02783,-2.25439 -0.22412,-16.95996 0.40576,-17.94858c9.52734,-14.9458 26.24121,-24.20991 42.22998,-30.65112z" fill="#fefefe"/></g></svg></svg>